# xmcd CD database file
#
# Track frame offsets:
#	150
#	16430
#	30650
#	43125
#	65167
#	103042
#
# Disc length: 1442 seconds
#
# Revision: 0
# Processed by: cddbd v1.5PL3 Copyright (c) Steve Scherf et al.
# Submitted via: CDex 1.50
#
DISCID=4f05a006
DTITLE=Trattoria★All Stars - Original Sound Track (Qaz)
DYEAR=1996
DGENRE=JPop
TTITLE0=Main Title
TTITLE1=Clock Work Man
TTITLE2=Maki's Groovy
TTITLE3=Mr>White King Kong Man
TTITLE4=Black Rain Fallin' On My Head
TTITLE5=Reprize
EXTD=YEAR: 1996
EXTT0=
EXTT1=
EXTT2=
EXTT3=
EXTT4=
EXTT5=
PLAYORDER=
